<?xml version="1.0" encoding="UTF-8"?>
<svg version="1.1" xmlns="http://www.w3.org/2000/svg" width="512" height="512">
<path d="M0 0 C1.34964844 1.13501953 1.34964844 1.13501953 2.7265625 2.29296875 C18.52546364 15.93342846 32.62038605 35.73846335 38 56 C50.74506409 57.87107285 64.14746205 58.8412978 75.24822998 51.3354187 C85.50954204 43.6189432 96.37603133 33.39022505 98.68643188 20.27662659 C99.7208025 11.77161623 99.07930894 3.48028451 98 -5 C104.27 -5 110.54 -5 117 -5 C117.06911483 -0.00069425 117.1287727 4.99693391 117.16479492 9.99633789 C117.17982126 11.69463742 117.20024823 13.39289855 117.22631836 15.09106445 C117.26297449 17.54127518 117.27978789 19.99097 117.29296875 22.44140625 C117.30845261 23.19273331 117.32393646 23.94406036 117.33988953 24.71815491 C117.34248701 32.97415835 114.32398164 38.12752963 108.60452271 43.89996338 C107.53571365 44.94721588 107.53571365 44.94721588 106.4453125 46.015625 C105.70675018 46.75327087 104.96818787 47.49091675 104.20724487 48.25091553 C102.65021761 49.80192286 101.08835444 51.34808892 99.52197266 52.88964844 C97.12931845 55.24574752 94.75310037 57.61750213 92.37890625 59.9921875 C90.8603158 61.50094752 89.34081486 63.00879179 87.8203125 64.515625 C86.75757614 65.57502289 86.75757614 65.57502289 85.67337036 66.65582275 C79.85116053 72.36725908 76.18236271 75.33781147 67.73046875 75.51171875 C66.70896477 75.53864555 66.70896477 75.53864555 65.66682434 75.56611633 C63.5071112 75.61998631 61.34761601 75.65403782 59.1875 75.6875 C57.71676669 75.72069391 56.24606207 75.75518549 54.77539062 75.79101562 C51.18380313 75.87569716 47.59213924 75.94261961 44 76 C44.21221191 77.45019531 44.21221191 77.45019531 44.42871094 78.9296875 C45.46749904 86.30526559 46.32586807 93.53963984 46.25 101 C46.25773437 101.76054687 46.26546875 102.52109375 46.2734375 103.3046875 C46.24836687 110.95122901 45.10500692 118.44869987 44 126 C44.8971875 125.99887207 45.794375 125.99774414 46.71875 125.99658203 C50.08187617 126.00657065 53.44258327 126.04333571 56.80517578 126.09765625 C58.25397593 126.11570582 59.70294663 126.12340493 61.15185547 126.12011719 C63.24838362 126.11722742 65.34145542 126.15286136 67.4375 126.1953125 C68.69433594 126.20578613 69.95117188 126.21625977 71.24609375 126.22705078 C79.21472717 127.86783469 84.85847074 134.5423941 90.45703125 140.12109375 C91.12667404 140.78407974 91.79631683 141.44706573 92.48625183 142.13014221 C93.88788616 143.52172722 95.28689271 144.91596365 96.68334961 146.31274414 C98.8140035 148.43900039 100.96018537 150.54871053 103.10742188 152.65820312 C104.47493595 154.01985221 105.84150572 155.38245046 107.20703125 156.74609375 C107.84453812 157.36922958 108.48204498 157.99236542 109.13887024 158.63438416 C114.63062529 164.18297148 117.34237239 169.39013928 117.33988953 177.28184509 C117.32440567 178.03317215 117.30892181 178.78449921 117.29296875 179.55859375 C117.28872391 180.34774673 117.28447906 181.13689972 117.28010559 181.94996643 C117.26344452 184.44617261 117.22581779 186.94154192 117.1875 189.4375 C117.17243683 191.13996222 117.15875129 192.84243721 117.14648438 194.54492188 C117.11614633 198.69718866 117.0574055 202.84766856 117 207 C110.73 207 104.46 207 98 207 C98.25265625 205.01484375 98.5053125 203.0296875 98.765625 200.984375 C99.84752697 187.13140038 99.26610005 175.82784641 90.17901611 164.70504761 C81.24912922 154.56901399 71.9776917 146.08586498 58.08163452 144.85096741 C51.34443187 144.51322646 44.6702931 145.02074998 38 146 C37.74802856 146.82878662 37.74802856 146.82878662 37.4909668 147.67431641 C35.73668453 153.2126096 33.56712152 158.26572681 30.8125 163.375 C30.41522705 164.11468018 30.0179541 164.85436035 29.60864258 165.61645508 C26.21655983 171.81219116 22.44364341 177.50020895 18 183 C17.55785156 183.55284668 17.11570312 184.10569336 16.66015625 184.67529297 C10.12551617 192.78825229 3.3844825 199.73909822 -5 206 C-5.81339844 206.65097656 -6.62679688 207.30195313 -7.46484375 207.97265625 C-34.05314443 228.57961348 -68.92188013 237.12157007 -102.1484375 233.50390625 C-117.96080676 231.47585773 -132.81721736 227.36702844 -147 220 C-147.63824707 219.66983887 -148.27649414 219.33967773 -148.93408203 218.99951172 C-158.1260886 214.19324816 -166.22834919 208.93434094 -174 202 C-174.90105469 201.24203125 -175.80210937 200.4840625 -176.73046875 199.703125 C-192.88567145 185.75815455 -203.7263833 167.47380527 -212 148 C-212 147.34 -212 146.68 -212 146 C-224.74506409 144.12892715 -238.14746205 143.1587022 -249.24822998 150.6645813 C-259.50954204 158.3810568 -270.37603133 168.60977495 -272.68643188 181.72337341 C-273.7208025 190.22838377 -273.07930894 198.51971549 -272 207 C-278.27 207 -284.54 207 -291 207 C-291.06911483 202.00069425 -291.1287727 197.00306609 -291.16479492 192.00366211 C-291.17982126 190.30536258 -291.20024823 188.60710145 -291.22631836 186.90893555 C-291.26297449 184.45872482 -291.27978789 182.00903 -291.29296875 179.55859375 C-291.30845261 178.80726669 -291.32393646 178.05593964 -291.33988953 177.28184509 C-291.34248701 169.02584165 -288.32398164 163.87247037 -282.60452271 158.10003662 C-281.89198334 157.40186829 -281.17944397 156.70369995 -280.4453125 155.984375 C-279.70675018 155.24672913 -278.96818787 154.50908325 -278.20724487 153.74908447 C-276.65021761 152.19807714 -275.08835444 150.65191108 -273.52197266 149.11035156 C-271.12931845 146.75425248 -268.75310037 144.38249787 -266.37890625 142.0078125 C-264.8603158 140.49905248 -263.34081486 138.99120821 -261.8203125 137.484375 C-261.11182159 136.77810974 -260.40333069 136.07184448 -259.67337036 135.34417725 C-253.85116053 129.63274092 -250.18236271 126.66218853 -241.73046875 126.48828125 C-241.04946609 126.47033005 -240.36846344 126.45237885 -239.66682434 126.43388367 C-237.5071112 126.38001369 -235.34761601 126.34596218 -233.1875 126.3125 C-231.71676669 126.27930609 -230.24606207 126.24481451 -228.77539062 126.20898438 C-225.18380313 126.12430284 -221.59213924 126.05738039 -218 126 C-218.14147461 125.03247803 -218.28294922 124.06495605 -218.42871094 123.06811523 C-219.46368236 115.71645312 -220.33775091 108.49938951 -220.25 101.0625 C-220.24613281 100.23202148 -220.24226563 99.40154297 -220.23828125 98.54589844 C-220.12896294 90.59299122 -219.181187 82.85786511 -218 75 C-218.91289795 75.01571045 -219.8257959 75.0314209 -220.76635742 75.04760742 C-224.1676201 75.0988697 -227.56846963 75.13641439 -230.9699707 75.16479492 C-232.43943782 75.17984066 -233.90886034 75.20028238 -235.37817383 75.22631836 C-237.4957177 75.26288955 -239.61266565 75.27976801 -241.73046875 75.29296875 C-243.00301514 75.3086792 -244.27556152 75.32438965 -245.58666992 75.34057617 C-250.06910894 74.89332616 -252.63903789 73.40683724 -255.73828125 70.203125 C-256.51751953 69.23632812 -256.51751953 69.23632812 -257.3125 68.25 C-260.29222322 64.71198442 -263.46263253 61.70240475 -267.0078125 58.73828125 C-269.45711647 56.60114347 -271.70959359 54.30695559 -274 52 C-275.14651736 50.89643914 -276.29508363 49.79500435 -277.4453125 48.6953125 C-278.67203108 47.50536921 -279.89859093 46.31526228 -281.125 45.125 C-281.74503906 44.53847656 -282.36507812 43.95195312 -283.00390625 43.34765625 C-283.60332031 42.76113281 -284.20273437 42.17460937 -284.8203125 41.5703125 C-285.35930176 41.05227051 -285.89829102 40.53422852 -286.45361328 40.00048828 C-290.77256267 34.41326515 -291.43344321 29.25768372 -291.29296875 22.44140625 C-291.28872391 21.65225327 -291.28447906 20.86310028 -291.28010559 20.05003357 C-291.26344452 17.55382739 -291.22581779 15.05845808 -291.1875 12.5625 C-291.17243683 10.86003778 -291.15875129 9.15756279 -291.14648438 7.45507812 C-291.11614633 3.30281134 -291.0574055 -0.84766856 -291 -5 C-284.73 -5 -278.46 -5 -272 -5 C-272.25265625 -3.01484375 -272.5053125 -1.0296875 -272.765625 1.015625 C-273.84752697 14.86859962 -273.26610005 26.17215359 -264.17901611 37.29495239 C-255.24912922 47.43098601 -245.9776917 55.91413502 -232.08163452 57.14903259 C-225.34443187 57.48677354 -218.6702931 56.97925002 -212 56 C-211.81969238 55.42862305 -211.63938477 54.85724609 -211.45361328 54.26855469 C-202.45004427 26.40561029 -182.2130436 3.76460752 -158 -12 C-157.08992187 -12.60714844 -156.17984375 -13.21429688 -155.2421875 -13.83984375 C-107.96554266 -43.53927448 -41.30082715 -36.78950603 0 0 Z " fill="#FE7855" transform="translate(343,155)"/>
<path d="M0 0 C1.34964844 1.13501953 1.34964844 1.13501953 2.7265625 2.29296875 C18.52546364 15.93342846 32.62038605 35.73846335 38 56 C50.74506409 57.87107285 64.14746205 58.8412978 75.24822998 51.3354187 C85.50954204 43.6189432 96.37603133 33.39022505 98.68643188 20.27662659 C99.7208025 11.77161623 99.07930894 3.48028451 98 -5 C104.27 -5 110.54 -5 117 -5 C117.06911483 -0.00069425 117.1287727 4.99693391 117.16479492 9.99633789 C117.17982126 11.69463742 117.20024823 13.39289855 117.22631836 15.09106445 C117.26297449 17.54127518 117.27978789 19.99097 117.29296875 22.44140625 C117.30845261 23.19273331 117.32393646 23.94406036 117.33988953 24.71815491 C117.34248701 32.97415835 114.32398164 38.12752963 108.60452271 43.89996338 C107.53571365 44.94721588 107.53571365 44.94721588 106.4453125 46.015625 C105.70675018 46.75327087 104.96818787 47.49091675 104.20724487 48.25091553 C102.65021761 49.80192286 101.08835444 51.34808892 99.52197266 52.88964844 C97.12931845 55.24574752 94.75310037 57.61750213 92.37890625 59.9921875 C90.8603158 61.50094752 89.34081486 63.00879179 87.8203125 64.515625 C86.75757614 65.57502289 86.75757614 65.57502289 85.67337036 66.65582275 C79.85116053 72.36725908 76.18236271 75.33781147 67.73046875 75.51171875 C66.70896477 75.53864555 66.70896477 75.53864555 65.66682434 75.56611633 C63.5071112 75.61998631 61.34761601 75.65403782 59.1875 75.6875 C57.71676669 75.72069391 56.24606207 75.75518549 54.77539062 75.79101562 C51.18380313 75.87569716 47.59213924 75.94261961 44 76 C44.21221191 77.45019531 44.21221191 77.45019531 44.42871094 78.9296875 C45.46749904 86.30526559 46.32586807 93.53963984 46.25 101 C46.25773437 101.76054687 46.26546875 102.52109375 46.2734375 103.3046875 C46.24836687 110.95122901 45.10500692 118.44869987 44 126 C44.8971875 125.99887207 45.794375 125.99774414 46.71875 125.99658203 C50.08187617 126.00657065 53.44258327 126.04333571 56.80517578 126.09765625 C58.25397593 126.11570582 59.70294663 126.12340493 61.15185547 126.12011719 C63.24838362 126.11722742 65.34145542 126.15286136 67.4375 126.1953125 C68.69433594 126.20578613 69.95117188 126.21625977 71.24609375 126.22705078 C79.21472717 127.86783469 84.85847074 134.5423941 90.45703125 140.12109375 C91.12667404 140.78407974 91.79631683 141.44706573 92.48625183 142.13014221 C93.88788616 143.52172722 95.28689271 144.91596365 96.68334961 146.31274414 C98.8140035 148.43900039 100.96018537 150.54871053 103.10742188 152.65820312 C104.47493595 154.01985221 105.84150572 155.38245046 107.20703125 156.74609375 C107.84453812 157.36922958 108.48204498 157.99236542 109.13887024 158.63438416 C114.63062529 164.18297148 117.34237239 169.39013928 117.33988953 177.28184509 C117.32440567 178.03317215 117.30892181 178.78449921 117.29296875 179.55859375 C117.28872391 180.34774673 117.28447906 181.13689972 117.28010559 181.94996643 C117.26344452 184.44617261 117.22581779 186.94154192 117.1875 189.4375 C117.17243683 191.13996222 117.15875129 192.84243721 117.14648438 194.54492188 C117.11614633 198.69718866 117.0574055 202.84766856 117 207 C110.73 207 104.46 207 98 207 C98.25265625 205.01484375 98.5053125 203.0296875 98.765625 200.984375 C99.84752697 187.13140038 99.26610005 175.82784641 90.17901611 164.70504761 C81.24912922 154.56901399 71.9776917 146.08586498 58.08163452 144.85096741 C51.34443187 144.51322646 44.6702931 145.02074998 38 146 C37.74802856 146.82878662 37.74802856 146.82878662 37.4909668 147.67431641 C35.73668453 153.2126096 33.56712152 158.26572681 30.8125 163.375 C30.41522705 164.11468018 30.0179541 164.85436035 29.60864258 165.61645508 C26.21655983 171.81219116 22.44364341 177.50020895 18 183 C17.55785156 183.55284668 17.11570312 184.10569336 16.66015625 184.67529297 C10.12551617 192.78825229 3.3844825 199.73909822 -5 206 C-5.81339844 206.65097656 -6.62679688 207.30195313 -7.46484375 207.97265625 C-34.05314443 228.57961348 -68.92188013 237.12157007 -102.1484375 233.50390625 C-117.96080676 231.47585773 -132.81721736 227.36702844 -147 220 C-147.63824707 219.66983887 -148.27649414 219.33967773 -148.93408203 218.99951172 C-158.1260886 214.19324816 -166.22834919 208.93434094 -174 202 C-174.90105469 201.24203125 -175.80210937 200.4840625 -176.73046875 199.703125 C-192.88567145 185.75815455 -203.7263833 167.47380527 -212 148 C-212 147.34 -212 146.68 -212 146 C-224.74506409 144.12892715 -238.14746205 143.1587022 -249.24822998 150.6645813 C-259.50954204 158.3810568 -270.37603133 168.60977495 -272.68643188 181.72337341 C-273.7208025 190.22838377 -273.07930894 198.51971549 -272 207 C-278.27 207 -284.54 207 -291 207 C-291.06911483 202.00069425 -291.1287727 197.00306609 -291.16479492 192.00366211 C-291.17982126 190.30536258 -291.20024823 188.60710145 -291.22631836 186.90893555 C-291.26297449 184.45872482 -291.27978789 182.00903 -291.29296875 179.55859375 C-291.30845261 178.80726669 -291.32393646 178.05593964 -291.33988953 177.28184509 C-291.34248701 169.02584165 -288.32398164 163.87247037 -282.60452271 158.10003662 C-281.89198334 157.40186829 -281.17944397 156.70369995 -280.4453125 155.984375 C-279.70675018 155.24672913 -278.96818787 154.50908325 -278.20724487 153.74908447 C-276.65021761 152.19807714 -275.08835444 150.65191108 -273.52197266 149.11035156 C-271.12931845 146.75425248 -268.75310037 144.38249787 -266.37890625 142.0078125 C-264.8603158 140.49905248 -263.34081486 138.99120821 -261.8203125 137.484375 C-261.11182159 136.77810974 -260.40333069 136.07184448 -259.67337036 135.34417725 C-253.85116053 129.63274092 -250.18236271 126.66218853 -241.73046875 126.48828125 C-241.04946609 126.47033005 -240.36846344 126.45237885 -239.66682434 126.43388367 C-237.5071112 126.38001369 -235.34761601 126.34596218 -233.1875 126.3125 C-231.71676669 126.27930609 -230.24606207 126.24481451 -228.77539062 126.20898438 C-225.18380313 126.12430284 -221.59213924 126.05738039 -218 126 C-218.14147461 125.03247803 -218.28294922 124.06495605 -218.42871094 123.06811523 C-219.46368236 115.71645312 -220.33775091 108.49938951 -220.25 101.0625 C-220.24613281 100.23202148 -220.24226563 99.40154297 -220.23828125 98.54589844 C-220.12896294 90.59299122 -219.181187 82.85786511 -218 75 C-218.91289795 75.01571045 -219.8257959 75.0314209 -220.76635742 75.04760742 C-224.1676201 75.0988697 -227.56846963 75.13641439 -230.9699707 75.16479492 C-232.43943782 75.17984066 -233.90886034 75.20028238 -235.37817383 75.22631836 C-237.4957177 75.26288955 -239.61266565 75.27976801 -241.73046875 75.29296875 C-243.00301514 75.3086792 -244.27556152 75.32438965 -245.58666992 75.34057617 C-250.06910894 74.89332616 -252.63903789 73.40683724 -255.73828125 70.203125 C-256.51751953 69.23632812 -256.51751953 69.23632812 -257.3125 68.25 C-260.29222322 64.71198442 -263.46263253 61.70240475 -267.0078125 58.73828125 C-269.45711647 56.60114347 -271.70959359 54.30695559 -274 52 C-275.14651736 50.89643914 -276.29508363 49.79500435 -277.4453125 48.6953125 C-278.67203108 47.50536921 -279.89859093 46.31526228 -281.125 45.125 C-281.74503906 44.53847656 -282.36507812 43.95195312 -283.00390625 43.34765625 C-283.60332031 42.76113281 -284.20273437 42.17460937 -284.8203125 41.5703125 C-285.35930176 41.05227051 -285.89829102 40.53422852 -286.45361328 40.00048828 C-290.77256267 34.41326515 -291.43344321 29.25768372 -291.29296875 22.44140625 C-291.28872391 21.65225327 -291.28447906 20.86310028 -291.28010559 20.05003357 C-291.26344452 17.55382739 -291.22581779 15.05845808 -291.1875 12.5625 C-291.17243683 10.86003778 -291.15875129 9.15756279 -291.14648438 7.45507812 C-291.11614633 3.30281134 -291.0574055 -0.84766856 -291 -5 C-284.73 -5 -278.46 -5 -272 -5 C-272.25265625 -3.01484375 -272.5053125 -1.0296875 -272.765625 1.015625 C-273.84752697 14.86859962 -273.26610005 26.17215359 -264.17901611 37.29495239 C-255.24912922 47.43098601 -245.9776917 55.91413502 -232.08163452 57.14903259 C-225.34443187 57.48677354 -218.6702931 56.97925002 -212 56 C-211.81969238 55.42862305 -211.63938477 54.85724609 -211.45361328 54.26855469 C-202.45004427 26.40561029 -182.2130436 3.76460752 -158 -12 C-157.08992187 -12.60714844 -156.17984375 -13.21429688 -155.2421875 -13.83984375 C-107.96554266 -43.53927448 -41.30082715 -36.78950603 0 0 Z M-173.49316406 24.64501953 C-181.435195 33.78609953 -190.03241896 45.12967584 -193 57 C-187.06 57 -181.12 57 -175 57 C-175 62.94 -175 68.88 -175 75 C-182.92 75 -190.84 75 -199 75 C-206.32622901 89.65245802 -202.18102364 111.75759505 -199 127 C-191.08 127 -183.16 127 -175 127 C-175 132.94 -175 138.88 -175 145 C-180.94 145 -186.88 145 -193 145 C-188.26128365 156.11775759 -182.89511899 165.80364844 -175 175 C-174.34515625 175.80050781 -173.6903125 176.60101563 -173.015625 177.42578125 C-157.1612 196.11135357 -134.80766679 208.67413676 -111 214 C-109.71029297 214.30744141 -109.71029297 214.30744141 -108.39453125 214.62109375 C-79.94079345 220.44026439 -48.58176111 213.52689506 -24.44140625 197.71875 C-9.75758258 187.73302805 1.7643553 175.86908504 11.3125 160.875 C11.73354004 160.21798096 12.15458008 159.56096191 12.58837891 158.8840332 C13.18851807 157.91663208 13.18851807 157.91663208 13.80078125 156.9296875 C14.15309814 156.36491699 14.50541504 155.80014648 14.8684082 155.21826172 C16.53791737 151.94551948 17.70998076 148.4400513 19 145 C13.06 145 7.12 145 1 145 C1 139.06 1 133.12 1 127 C8.92 127 16.84 127 25 127 C28.00898343 112.08045716 32.20670117 89.41340235 25 75 C17.08 75 9.16 75 1 75 C1 69.06 1 63.12 1 57 C6.94 57 12.88 57 19 57 C14.7040002 45.14304055 8.0887419 35.59965784 0 26 C-0.64195312 25.19949219 -1.28390625 24.39898437 -1.9453125 23.57421875 C-8.56904082 15.67863385 -16.60131256 9.86127879 -25 4 C-25.86496094 3.39027344 -26.72992188 2.78054687 -27.62109375 2.15234375 C-74.05897938 -28.02825783 -137.42140054 -15.09525885 -173.49316406 24.64501953 Z " fill="#FE9711" transform="translate(343,155)"/>
<path d="M0 0 C0.84101761 -0.00860046 1.68203522 -0.01720093 2.54853821 -0.02606201 C3.47320389 -0.03032196 4.39786957 -0.03458191 5.35055542 -0.03897095 C6.80938393 -0.05123718 6.80938393 -0.05123718 8.29768372 -0.06375122 C11.52737814 -0.0886323 14.75702844 -0.10513052 17.98678589 -0.11953735 C19.08925533 -0.12486103 20.19172478 -0.13018471 21.32760239 -0.13566971 C27.16581274 -0.16241637 33.00400162 -0.18178419 38.84225464 -0.19619751 C44.86817265 -0.21282549 50.89354164 -0.25758398 56.9192524 -0.30856895 C61.55532444 -0.34225985 66.19126668 -0.35377718 70.8274498 -0.35942459 C73.0481675 -0.36613469 75.26887673 -0.38135035 77.48947525 -0.4053154 C80.60377623 -0.43700057 83.71660373 -0.4369979 86.83102417 -0.42959595 C87.74354446 -0.44600128 88.65606476 -0.46240662 89.59623718 -0.47930908 C95.82822169 -0.41888428 100.35811337 0.81314137 104.97897339 5.15390015 C109.19635866 10.61627828 109.55832082 16.25966382 109.49655151 22.94711304 C109.50356079 23.89288712 109.51057007 24.83866119 109.51779175 25.81309509 C109.53529808 28.91788694 109.5237759 32.0217564 109.51022339 35.1265564 C109.51292019 37.29553908 109.51680417 39.46452058 109.52182007 41.63349915 C109.52770497 46.17012082 109.51918362 50.70642662 109.50045776 55.24301147 C109.47765549 61.04914232 109.49080622 66.85453402 109.51474762 72.66063786 C109.52922106 77.13629193 109.52459268 81.61177155 109.51423645 86.08743095 C109.51157416 88.227992 109.51482134 90.36856905 109.52415466 92.5091114 C109.534347 95.50319344 109.51878165 98.4960879 109.49655151 101.49008179 C109.50464844 102.36871887 109.51274536 103.24735596 109.52108765 104.15261841 C109.43145972 110.6895753 107.89376923 114.97541861 103.38131714 119.89608765 C99.53030888 122.8742007 96.79629738 124.27189157 91.95158386 124.30107117 C91.13443405 124.30822647 90.31728424 124.31538177 89.47537231 124.32275391 C88.58235413 124.32544281 87.68933594 124.32813171 86.76925659 124.3309021 C85.82581894 124.3374733 84.88238129 124.34404449 83.91035461 124.35081482 C80.78348715 124.37054869 77.65666776 124.38221149 74.52975464 124.3921814 C72.92707261 124.39829469 72.92707261 124.39829469 71.29201317 124.40453148 C65.63534107 124.42539394 59.97869323 124.43969415 54.32199097 124.44906616 C48.48563095 124.46012276 42.64965301 124.49451381 36.81342793 124.53423786 C32.32061567 124.56041369 27.82789424 124.56875895 23.33501244 124.57234764 C21.18408825 124.57721213 19.03316808 124.58882214 16.8823185 124.60738564 C13.86646102 124.63179402 10.85158934 124.63080856 7.83566284 124.62387085 C6.95276581 124.63668091 6.06986877 124.64949097 5.16021729 124.66268921 C-0.64520653 124.61419375 -5.34518657 123.77405593 -10.02102661 120.15390015 C-15.11622225 114.71556271 -15.74498523 109.26641799 -15.65213013 102.06942749 C-15.65928543 101.09278641 -15.66644073 100.11614532 -15.67381287 99.10990906 C-15.69063182 95.90273331 -15.67133927 92.69696857 -15.64993286 89.48983765 C-15.65076205 87.25119919 -15.6532233 85.01256079 -15.65724182 82.77392578 C-15.660095 78.09180282 -15.64544249 73.41015951 -15.61795044 68.7281189 C-15.58382959 62.73130307 -15.58990387 56.7353424 -15.60861301 50.73848534 C-15.61918698 46.11959725 -15.61024211 41.50090774 -15.5952282 36.88203812 C-15.59005154 34.67088028 -15.5905219 32.45970166 -15.59677315 30.2485466 C-15.60223152 27.15843918 -15.58183061 24.06955205 -15.55447388 20.97958374 C-15.56099976 20.06929916 -15.56752563 19.15901459 -15.57424927 18.22114563 C-15.49133125 12.70488237 -14.70233652 9.52579015 -11.02102661 5.15390015 C-7.29482267 1.87129192 -4.95722819 0.03770696 0 0 Z " fill="#5AA9E6" transform="translate(15.021026611328125,-0.153900146484375)"/>
<path d="M0 0 C0.81714981 -0.0071553 1.63429962 -0.01431061 2.47621155 -0.02168274 C3.36922974 -0.02437164 4.26224792 -0.02706055 5.18232727 -0.02983093 C6.12576492 -0.03640213 7.06920258 -0.04297333 8.04122925 -0.04974365 C11.16809671 -0.06947753 14.2949161 -0.08114032 17.42182922 -0.09111023 C19.02451125 -0.09722352 19.02451125 -0.09722352 20.65957069 -0.10346031 C26.3162428 -0.12432278 31.97289064 -0.13862299 37.6295929 -0.147995 C43.46595291 -0.15905159 49.30193085 -0.19344264 55.13815594 -0.23316669 C59.6309682 -0.25934252 64.12368962 -0.26768778 68.61657143 -0.27127647 C70.76749561 -0.27614096 72.91841578 -0.28775097 75.06926537 -0.30631447 C78.08512284 -0.33072285 81.09999452 -0.32973739 84.11592102 -0.32279968 C85.44026657 -0.34201477 85.44026657 -0.34201477 86.79136658 -0.36161804 C92.5967904 -0.31312258 97.29677043 0.52701523 101.97261047 4.14717102 C107.06780612 9.58550846 107.69656909 15.03465318 107.60371399 22.23164368 C107.61086929 23.20828476 107.6180246 24.18492584 107.62539673 25.19116211 C107.64221568 28.39833785 107.62292313 31.6041026 107.60151672 34.81123352 C107.60234591 37.04987198 107.60480716 39.28851038 107.60882568 41.52714539 C107.61167887 46.20926835 107.59702635 50.89091166 107.5695343 55.57295227 C107.53541345 61.56976809 107.54148774 67.56572877 107.56019688 73.56258583 C107.57077084 78.18147392 107.56182597 82.80016343 107.54681206 87.41903305 C107.5416354 89.63019089 107.54210576 91.8413695 107.54835701 94.05252457 C107.55381539 97.14263199 107.53341448 100.23151911 107.50605774 103.32148743 C107.51258362 104.231772 107.5191095 105.14205658 107.52583313 106.07992554 C107.4428935 111.59762669 106.65041679 114.7714198 102.97261047 119.14717102 C99.04986697 122.68720784 96.1484842 124.26045525 90.86929321 124.30107117 C90.03531509 124.30967163 89.20133698 124.31827209 88.34208679 124.32713318 C86.97450729 124.3335231 86.97450729 124.3335231 85.57929993 124.34004211 C84.61635513 124.3482196 83.65341034 124.35639709 82.6612854 124.36482239 C79.46949382 124.38966605 76.27774673 124.40619085 73.08589172 124.42060852 C71.99537191 124.4259322 70.9048521 124.43125587 69.78128624 124.43674088 C64.00790993 124.46346942 58.23455521 124.48284432 52.46113586 124.49726868 C46.50362528 124.51390552 40.54666905 124.55867664 34.58936787 124.60964012 C30.00391011 124.64332995 25.41858358 124.65484811 20.83301353 124.66049576 C18.63741513 124.66720455 16.44182524 124.68241682 14.24634743 124.70638657 C11.16807296 124.7380739 8.09128903 124.73806898 5.01289368 124.73066711 C3.66049591 124.75527512 3.66049591 124.75527512 2.28077698 124.78038025 C-3.92210174 124.71953847 -8.42634232 123.45964828 -13.02738953 119.14717102 C-17.24536293 113.68571505 -17.60673098 108.04076024 -17.54496765 101.35395813 C-17.55197693 100.40818405 -17.55898621 99.46240997 -17.56620789 98.48797607 C-17.58371422 95.38318422 -17.57219204 92.27931477 -17.55863953 89.17451477 C-17.56133632 87.00553209 -17.56522031 84.83655058 -17.57023621 82.66757202 C-17.5761211 78.13095035 -17.56759976 73.59464454 -17.5488739 69.05805969 C-17.52607163 63.25192884 -17.53922236 57.44653714 -17.56316376 51.64043331 C-17.5776372 47.16477924 -17.57300882 42.68929962 -17.56265259 38.21364021 C-17.5599903 36.07307917 -17.56323748 33.93250212 -17.5725708 31.79195976 C-17.58276314 28.79787773 -17.56719779 25.80498327 -17.54496765 22.81098938 C-17.55306458 21.93235229 -17.5611615 21.05371521 -17.56950378 20.14845276 C-17.47987586 13.61149587 -15.94218537 9.32565255 -11.42973328 4.40498352 C-7.57872502 1.42687047 -4.84471352 0.0291796 0 0 Z " fill="#59A9E6" transform="translate(405.0273895263672,387.8528289794922)"/>
<path d="M0 0 C1.46496162 -0.01073296 1.46496162 -0.01073296 2.95951843 -0.02168274 C6.16669418 -0.03850169 9.37245892 -0.01920914 12.57958984 0.00219727 C14.8182283 0.00136808 17.0568667 -0.00109317 19.29550171 -0.00511169 C23.97762467 -0.00796488 28.65926798 0.00668764 33.34130859 0.03417969 C39.33812442 0.06830054 45.33408509 0.06222625 51.33094215 0.04351711 C55.94983024 0.03294315 60.56851975 0.04188802 65.18738937 0.05690193 C67.39854721 0.06207859 69.60972583 0.06160823 71.82088089 0.05535698 C74.91098831 0.0498986 77.99987544 0.07029951 81.08984375 0.09765625 C82.00012833 0.09113037 82.9104129 0.08460449 83.84828186 0.07788086 C89.36454512 0.16079888 92.54363734 0.9497936 96.91552734 4.63110352 C100.19813557 8.35730745 102.03172053 10.69490193 102.06942749 15.65213013 C102.07802795 16.49314774 102.08662842 17.33416534 102.0954895 18.20066833 C102.09974945 19.12533401 102.1040094 20.04999969 102.10839844 21.00268555 C102.12066467 22.46151405 102.12066467 22.46151405 102.13317871 23.94981384 C102.15805979 27.17950826 102.17455801 30.40915857 102.18896484 33.63891602 C102.19428852 34.74138546 102.1996122 35.8438549 102.2050972 36.97973251 C102.23184386 42.81794286 102.25121168 48.65613174 102.265625 54.49438477 C102.28225298 60.52030277 102.32701147 66.54567176 102.37799644 72.57138252 C102.41168734 77.20745457 102.42320467 81.84339681 102.42885208 86.47957993 C102.43556218 88.70029762 102.45077784 90.92100685 102.47474289 93.14160538 C102.50642806 96.25590636 102.50642539 99.36873386 102.49902344 102.4831543 C102.51542877 103.39567459 102.53183411 104.30819489 102.54873657 105.24836731 C102.48831177 111.48035181 101.25628612 116.01024349 96.91552734 120.63110352 C91.45314921 124.84848879 85.80976367 125.21045095 79.12231445 125.14868164 C78.17654037 125.15569092 77.2307663 125.1627002 76.2563324 125.16992188 C73.15154055 125.18742821 70.04767109 125.17590603 66.94287109 125.16235352 C64.77388841 125.16505031 62.60490691 125.1689343 60.43592834 125.1739502 C55.89930667 125.17983509 51.36300087 125.17131375 46.82641602 125.15258789 C41.02028517 125.12978562 35.21489347 125.14293635 29.40878963 125.16687775 C24.93313556 125.18135119 20.45765594 125.17672281 15.98199654 125.16636658 C13.84143549 125.16370429 11.70085844 125.16695147 9.56031609 125.17628479 C6.56623405 125.18647713 3.57333959 125.17091178 0.5793457 125.14868164 C-0.29929138 125.15677856 -1.17792847 125.16487549 -2.08319092 125.17321777 C-8.62014781 125.08358985 -12.90599112 123.54589936 -17.82666016 119.03344727 C-20.80477321 115.18243901 -22.20246408 112.44842751 -22.23164368 107.60371399 C-22.23879898 106.78656418 -22.24595428 105.96941437 -22.25332642 105.12750244 C-22.25601532 104.23448425 -22.25870422 103.34146606 -22.26147461 102.42138672 C-22.26804581 101.47794907 -22.274617 100.53451141 -22.28138733 99.56248474 C-22.3011212 96.43561728 -22.312784 93.30879789 -22.32275391 90.18188477 C-22.32682943 89.11343008 -22.33090496 88.0449754 -22.33510399 86.9441433 C-22.35596645 81.28747119 -22.37026666 75.63082335 -22.37963867 69.97412109 C-22.39069527 64.13776108 -22.42508632 58.30178314 -22.46481037 52.46555805 C-22.4909862 47.97274579 -22.49933146 43.48002437 -22.50292015 38.98714256 C-22.50778464 36.83621837 -22.51939464 34.68529821 -22.53795815 32.53444862 C-22.56236653 29.51859115 -22.56138107 26.50371946 -22.55444336 23.48779297 C-22.56725342 22.60489594 -22.58006348 21.7219989 -22.59326172 20.81234741 C-22.54476626 15.00692359 -21.70462844 10.30694356 -18.08447266 5.63110352 C-12.64613522 0.53590787 -7.1969905 -0.09285511 0 0 Z " fill="#5AA9E6" transform="translate(410.08447265625,-0.631103515625)"/>
<path d="M0 0 C1.41866112 -0.01051392 1.41866112 -0.01051392 2.86598206 -0.02124023 C5.97077391 -0.03874657 9.07464336 -0.02722439 12.17944336 -0.01367188 C14.34842604 -0.01636867 16.51740755 -0.02025266 18.68638611 -0.02526855 C23.22300778 -0.03115345 27.75931359 -0.02263211 32.29589844 -0.00390625 C38.10202929 0.01889602 43.90742099 0.00574529 49.71352482 -0.01819611 C54.18917889 -0.03266955 58.66465851 -0.02804117 63.14031792 -0.01768494 C65.28087896 -0.01502265 67.42145601 -0.01826983 69.56199837 -0.02760315 C72.5560804 -0.03779549 75.54897486 -0.02223014 78.54296875 0 C79.86092438 -0.01214539 79.86092438 -0.01214539 81.20550537 -0.02453613 C87.74246226 0.06509179 92.02830558 1.60278228 96.94897461 6.11523438 C99.92708766 9.96624263 101.32477853 12.70025413 101.35395813 17.54496765 C101.36111343 18.36211746 101.36826874 19.17926727 101.37564087 20.0211792 C101.37832977 20.91419739 101.38101868 21.80721558 101.38378906 22.72729492 C101.39036026 23.67073257 101.39693146 24.61417023 101.40370178 25.5861969 C101.42343566 28.71306436 101.43509845 31.83988375 101.44506836 34.96679688 C101.44914389 36.03525156 101.45321941 37.10370625 101.45741844 38.20453835 C101.47828091 43.86121045 101.49258112 49.51785829 101.50195312 55.17456055 C101.51300972 61.01092056 101.54740077 66.8468985 101.58712482 72.68312359 C101.61330065 77.17593585 101.62164591 81.66865727 101.6252346 86.16153908 C101.63009909 88.31246327 101.6417091 90.46338344 101.6602726 92.61423302 C101.68468098 95.63009049 101.68369552 98.64496218 101.67675781 101.66088867 C101.68956787 102.54378571 101.70237793 103.42668274 101.71557617 104.33633423 C101.66708392 110.1413737 100.82731786 114.84231679 97.20678711 119.51757812 C91.78698928 124.5875139 86.38469444 125.23885191 79.21411133 125.1328125 C78.24722382 125.13836151 77.2803363 125.14391052 76.28414917 125.14962769 C73.10940959 125.16137455 69.9361129 125.13720182 66.76147461 125.11132812 C64.54525823 125.1096159 62.32903982 125.10968385 60.11282349 125.1114502 C55.47776809 125.10979986 50.84319804 125.0911511 46.20825195 125.05957031 C40.27206625 125.01984772 34.33651431 125.01553237 28.40022087 125.02303314 C23.82766938 125.02610443 19.25525995 125.01397734 14.68274307 124.99690247 C12.49391699 124.98988077 10.30507482 124.98674692 8.11623764 124.9875946 C5.05742089 124.98579399 1.99935967 124.96439032 -1.05932617 124.9375 C-1.96026001 124.9404306 -2.86119385 124.94336121 -3.78942871 124.94638062 C-9.57031055 124.86809444 -13.99389725 124.07087316 -18.43774414 120.01757812 C-21.49018181 116.09739062 -22.90910002 113.35513019 -22.94711304 108.41426086 C-22.9557135 107.58028275 -22.96431396 106.74630463 -22.97317505 105.88705444 C-22.977435 104.97533478 -22.98169495 104.06361511 -22.98608398 103.12426758 C-22.99426147 102.16132278 -23.00243896 101.19837799 -23.01086426 100.20625305 C-23.03570792 97.01446148 -23.05223272 93.82271438 -23.06665039 90.63085938 C-23.07197407 89.54033957 -23.07729774 88.44981976 -23.08278275 87.32625389 C-23.10951129 81.55287758 -23.12888619 75.77952286 -23.14331055 70.00610352 C-23.15994739 64.04859294 -23.20471851 58.0916367 -23.25568199 52.13433552 C-23.28937182 47.54887776 -23.30088998 42.96355124 -23.30653763 38.37798119 C-23.31324642 36.18238278 -23.32845869 33.98679289 -23.35242844 31.79131508 C-23.38411577 28.71304061 -23.38411085 25.63625668 -23.37670898 22.55786133 C-23.39311432 21.65626282 -23.40951965 20.75466431 -23.42642212 19.82574463 C-23.36558034 13.62286591 -22.10569015 9.11862533 -17.79321289 4.51757812 C-12.33175692 0.29960472 -6.68680212 -0.06176333 0 0 Z " fill="#59A9E6" transform="translate(22.793212890625,387.482421875)"/>
<path d="M0 0 C0.71776611 0.5367334 1.43553223 1.0734668 2.17504883 1.62646484 C2.9787793 2.22330078 3.78250977 2.82013672 4.6105957 3.43505859 C5.44268555 4.06283203 6.27477539 4.69060547 7.13208008 5.33740234 C7.94483398 5.94197266 8.75758789 6.54654297 9.5949707 7.16943359 C15.10120866 11.27830488 20.53620436 15.47580071 25.94458008 19.71240234 C28.95901023 18.30453609 31.54127235 16.64792553 34.21020508 14.66552734 C35.42256836 13.76833984 35.42256836 13.76833984 36.65942383 12.85302734 C37.49602539 12.22912109 38.33262695 11.60521484 39.19458008 10.96240234 C40.01571289 10.35396484 40.8368457 9.74552734 41.68286133 9.11865234 C42.49625977 8.51537109 43.3096582 7.91208984 44.14770508 7.29052734 C45.35801392 6.39962402 45.35801392 6.39962402 46.59277344 5.49072266 C48.12802993 4.32983734 49.63628596 3.13209595 51.11083984 1.89501953 C56.14155723 -2.25280966 56.14155723 -2.25280966 60.19067383 -2.42822266 C61.24383789 -2.13431641 62.29700195 -1.84041016 63.38208008 -1.53759766 C65.17838867 -1.04453125 65.17838867 -1.04453125 67.01098633 -0.54150391 C68.32347725 -0.12761329 69.63462249 0.29056236 70.94458008 0.71240234 C72.01748291 1.03942139 72.01748291 1.03942139 73.11206055 1.37304688 C86.89457152 5.60988169 96.56041924 10.70991238 104.04614258 23.61083984 C106.72500018 29.54438425 107.49511675 36.40947077 105.94458008 42.71240234 C102.87943836 46.63505395 99.10807183 49.04539695 94.94458008 51.71240234 C93.93008789 52.44974609 92.9155957 53.18708984 91.87036133 53.94677734 C77.33670644 64.1150763 60.49684266 70.46056568 42.94458008 72.71240234 C41.84887695 72.89287109 40.75317383 73.07333984 39.62426758 73.25927734 C8.15888888 77.13399489 -21.36167679 66.8734967 -46.05541992 47.71240234 C-46.61962646 47.3129541 -47.18383301 46.91350586 -47.76513672 46.50195312 C-50.48176026 44.47962684 -51.92166345 43.25347374 -52.74682617 39.91552734 C-52.20510943 27.50528915 -48.96124997 18.99630882 -39.74291992 10.46240234 C-32.93693042 5.0450503 -24.4932592 2.73622979 -16.24291992 0.39990234 C-15.31543945 0.12339844 -14.38795898 -0.15310547 -13.43237305 -0.43798828 C-12.5384082 -0.69386719 -11.64444336 -0.94974609 -10.72338867 -1.21337891 C-9.9218335 -1.44452393 -9.12027832 -1.67566895 -8.29443359 -1.91381836 C-4.86712843 -2.48597016 -2.92129736 -1.83001808 0 0 Z " fill="#3E99E0" transform="translate(229.055419921875,297.28759765625)"/>
<path d="M0 0 C6.27 0 12.54 0 19 0 C19.06911483 4.99930575 19.1287727 9.99693391 19.16479492 14.99633789 C19.17982126 16.69463742 19.20024823 18.39289855 19.22631836 20.09106445 C19.26297449 22.54127518 19.27978789 24.99097 19.29296875 27.44140625 C19.30845261 28.19273331 19.32393646 28.94406036 19.33988953 29.71815491 C19.34248701 37.97415835 16.32398164 43.12752963 10.60452271 48.89996338 C9.89198334 49.59813171 9.17944397 50.29630005 8.4453125 51.015625 C7.70675018 51.75327087 6.96818787 52.49091675 6.20724487 53.25091553 C4.65021761 54.80192286 3.08835444 56.34808892 1.52197266 57.88964844 C-0.87068155 60.24574752 -3.24689963 62.61750213 -5.62109375 64.9921875 C-7.1396842 66.50094752 -8.65918514 68.00879179 -10.1796875 69.515625 C-11.24242386 70.57502289 -11.24242386 70.57502289 -12.32662964 71.65582275 C-18.14883947 77.36725908 -21.81763729 80.33781147 -30.26953125 80.51171875 C-30.95053391 80.52966995 -31.63153656 80.54762115 -32.33317566 80.56611633 C-34.4928888 80.61998631 -36.65238399 80.65403782 -38.8125 80.6875 C-40.28323331 80.72069391 -41.75393793 80.75518549 -43.22460938 80.79101562 C-46.81619687 80.87569716 -50.40786076 80.94261961 -54 81 C-53.85852539 81.96679688 -53.71705078 82.93359375 -53.57128906 83.9296875 C-52.53250096 91.30526559 -51.67413193 98.53963984 -51.75 106 C-51.73839844 107.14082031 -51.73839844 107.14082031 -51.7265625 108.3046875 C-51.75163313 115.95122901 -52.89499308 123.44869987 -54 131 C-53.1028125 130.99887207 -52.205625 130.99774414 -51.28125 130.99658203 C-47.91812383 131.00657065 -44.55741673 131.04333571 -41.19482422 131.09765625 C-39.74602407 131.11570582 -38.29705337 131.12340493 -36.84814453 131.12011719 C-34.75161638 131.11722742 -32.65854458 131.15286136 -30.5625 131.1953125 C-29.30566406 131.20578613 -28.04882812 131.21625977 -26.75390625 131.22705078 C-18.78527283 132.86783469 -13.14152926 139.5423941 -7.54296875 145.12109375 C-6.87332596 145.78407974 -6.20368317 146.44706573 -5.51374817 147.13014221 C-4.11211384 148.52172722 -2.71310729 149.91596365 -1.31665039 151.31274414 C0.8140035 153.43900039 2.96018537 155.54871053 5.10742188 157.65820312 C6.47493595 159.01985221 7.84150572 160.38245046 9.20703125 161.74609375 C9.84453812 162.36922958 10.48204498 162.99236542 11.13887024 163.63438416 C16.63062529 169.18297148 19.34237239 174.39013928 19.33988953 182.28184509 C19.32440567 183.03317215 19.30892181 183.78449921 19.29296875 184.55859375 C19.28872391 185.34774673 19.28447906 186.13689972 19.28010559 186.94996643 C19.26344452 189.44617261 19.22581779 191.94154192 19.1875 194.4375 C19.17243683 196.13996222 19.15875129 197.84243721 19.14648438 199.54492188 C19.11614633 203.69718866 19.0574055 207.84766856 19 212 C12.73 212 6.46 212 0 212 C0.25265625 210.01484375 0.5053125 208.0296875 0.765625 205.984375 C1.95554004 191.18326088 0.55800081 177.77011655 -9.18139648 165.95922852 C-20.20246548 153.56568094 -32.27533298 150.65122215 -48.29876137 149.68086624 C-64.52089134 148.8471302 -80.78302462 149.27068681 -97 150 C-97 144.06 -97 138.12 -97 132 C-89.08 132 -81.16 132 -73 132 C-70.59687987 114.12679401 -70.74606049 97.8906449 -73 80 C-80.92 80 -88.84 80 -97 80 C-97 74.06 -97 68.12 -97 62 C-94.13006348 62.12906738 -94.13006348 62.12906738 -91.20214844 62.26074219 C-50.43658194 65.62949707 -50.43658194 65.62949707 -14.24804688 51.46289062 C-3.51647186 40.75201867 1.22539093 29.4044783 1.25 14.25 C1.11899777 9.4519842 0.60670624 4.76697761 0 0 Z " fill="#FE9811" transform="translate(441,150)"/>
<path d="M0 0 C0.89976562 0.75667969 1.79953125 1.51335937 2.7265625 2.29296875 C18.30766735 15.74538744 31.08663515 34.61673406 38 54 C38 54.99 38 55.98 38 57 C31.73 57 25.46 57 19 57 C17.88625 54.81375 16.7725 52.6275 15.625 50.375 C5.68890535 31.50242196 -7.35830559 16.90049559 -25 5 C-25.84046875 4.41476563 -26.6809375 3.82953125 -27.546875 3.2265625 C-50.07827248 -11.4576931 -81.10491993 -16.68722585 -107.375 -11.8125 C-137.24876921 -5.29458672 -165.06417801 11.04703469 -182 37 C-185.98018839 43.49617034 -189.5935087 50.1870174 -193 57 C-199.27 57 -205.54 57 -212 57 C-208.86355564 41.3177782 -198.49847343 25.76614624 -188 14 C-187.24203125 13.09894531 -186.4840625 12.19789063 -185.703125 11.26953125 C-175.89500885 -0.09313925 -164.01295495 -8.64061349 -151 -16 C-150.06027344 -16.53238281 -149.12054688 -17.06476563 -148.15234375 -17.61328125 C-101.24812298 -42.58155283 -39.59794079 -35.27262725 0 0 Z " fill="#CD2A00" transform="translate(343,155)"/>
<path d="M0 0 C6.27 0 12.54 0 19 0 C19.70125 1.32773437 20.4025 2.65546875 21.125 4.0234375 C26.09314244 13.31782079 30.9077487 22.13090982 38 30 C38.62519531 30.77730469 39.25039062 31.55460937 39.89453125 32.35546875 C57.41770431 53.43018357 85.92205529 67.20467516 113 70 C146.76856972 71.97792474 177.04840547 62.21847086 202.73901367 40.03833008 C215.2935203 28.81453218 223.51521405 14.96957191 231 0 C237.27 0 243.54 0 250 0 C247.19331292 14.03343539 238.85546454 26.95776487 230 38 C229.5265918 38.59683594 229.05318359 39.19367188 228.56542969 39.80859375 C222.08976486 47.89569465 215.33594485 54.7753425 207 61 C206.18660156 61.65097656 205.37320313 62.30195313 204.53515625 62.97265625 C177.94685557 83.57961348 143.07811987 92.12157007 109.8515625 88.50390625 C94.03919324 86.47585773 79.18278264 82.36702844 65 75 C64.36175293 74.66983887 63.72350586 74.33967773 63.06591797 73.99951172 C53.8739114 69.19324816 45.77165081 63.93434094 38 57 C37.09894531 56.24203125 36.19789063 55.4840625 35.26953125 54.703125 C21.31729967 42.65973187 11.38468952 27.41237964 3.5 10.875 C3.1491333 10.13983154 2.7982666 9.40466309 2.43676758 8.6472168 C0 3.37974267 0 3.37974267 0 0 Z " fill="#CC2A00" transform="translate(131,300)"/>
<path d="M0 0 C1.50478441 1.90078031 2.88792207 3.80604953 4.1015625 5.90625 C7.10512755 11.09951087 10.09953809 14.93243171 16.18359375 16.59765625 C16.78300781 16.73042969 17.38242187 16.86320312 18 17 C18.1475051 21.08294109 18.23479965 25.16518143 18.3125 29.25 C18.35439453 30.38953125 18.39628906 31.5290625 18.43945312 32.703125 C18.60047523 44.03908144 15.42769162 52.99828814 7.84375 61.4765625 C6 63 6 63 1 65 C1 72.92 1 80.84 1 89 C4.3 89.66 7.6 90.32 11 91 C11.66 91.66 12.32 92.32 13 93 C9.66705871 95.54218108 6.3335749 98.08364984 3 100.625 C2.06542969 101.33785156 1.13085938 102.05070312 0.16796875 102.78515625 C-5.20416043 106.87999598 -10.58777608 110.95827834 -16 115 C-19.01443015 113.59213375 -21.59669227 111.93552319 -24.265625 109.953125 C-25.07386719 109.355 -25.88210937 108.756875 -26.71484375 108.140625 C-27.55144531 107.51671875 -28.38804687 106.8928125 -29.25 106.25 C-30.07113281 105.6415625 -30.89226562 105.033125 -31.73828125 104.40625 C-36.83947034 100.62280072 -41.92292747 96.81573182 -47 93 C-43.2971891 89.74152641 -41.30360605 89.51531602 -36 88 C-35.67 80.41 -35.34 72.82 -35 65 C-36.32 64.34 -37.64 63.68 -39 63 C-45.96468361 58.60125246 -49.77042594 50.71356449 -52 43 C-52.22705078 40.02392578 -52.22705078 40.02392578 -52.1953125 36.9453125 C-52.18886719 35.83671875 -52.18242187 34.728125 -52.17578125 33.5859375 C-52.15902344 32.44382813 -52.14226562 31.30171875 -52.125 30.125 C-52.11597656 28.9596875 -52.10695312 27.794375 -52.09765625 26.59375 C-52.07417432 23.72895423 -52.04133141 20.86458465 -52 18 C-51.4016333 17.96559814 -50.8032666 17.93119629 -50.18676758 17.89575195 C-32.227309 16.7833107 -13.3934452 13.3934452 0 0 Z " fill="#FED9A9" transform="translate(273,203)"/>
<path d="M0 0 C0.81714981 -0.0071553 1.63429962 -0.01431061 2.47621155 -0.02168274 C3.36922974 -0.02437164 4.26224792 -0.02706055 5.18232727 -0.02983093 C6.12576492 -0.03640213 7.06920258 -0.04297333 8.04122925 -0.04974365 C11.16809671 -0.06947753 14.2949161 -0.08114032 17.42182922 -0.09111023 C19.02451125 -0.09722352 19.02451125 -0.09722352 20.65957069 -0.10346031 C26.3162428 -0.12432278 31.97289064 -0.13862299 37.6295929 -0.147995 C43.46595291 -0.15905159 49.30193085 -0.19344264 55.13815594 -0.23316669 C59.6309682 -0.25934252 64.12368962 -0.26768778 68.61657143 -0.27127647 C70.76749561 -0.27614096 72.91841578 -0.28775097 75.06926537 -0.30631447 C78.08512284 -0.33072285 81.09999452 -0.32973739 84.11592102 -0.32279968 C85.44026657 -0.34201477 85.44026657 -0.34201477 86.79136658 -0.36161804 C92.91090214 -0.31049865 96.8379289 0.71526788 101.97261047 4.14717102 C106.97261047 12.14717102 106.97261047 12.14717102 106.97261047 36.14717102 C66.05261047 36.14717102 25.13261047 36.14717102 -17.02738953 36.14717102 C-17.02738953 10.50902921 -17.02738953 10.50902921 -11.42973328 4.40498352 C-7.57872502 1.42687047 -4.84471352 0.0291796 0 0 Z " fill="#FE6243" transform="translate(405.0273895263672,387.8528289794922)"/>
<path d="M0 0 C1.41866112 -0.01051392 1.41866112 -0.01051392 2.86598206 -0.02124023 C5.97077391 -0.03874657 9.07464336 -0.02722439 12.17944336 -0.01367188 C14.34842604 -0.01636867 16.51740755 -0.02025266 18.68638611 -0.02526855 C23.22300778 -0.03115345 27.75931359 -0.02263211 32.29589844 -0.00390625 C38.10202929 0.01889602 43.90742099 0.00574529 49.71352482 -0.01819611 C54.18917889 -0.03266955 58.66465851 -0.02804117 63.14031792 -0.01768494 C65.28087896 -0.01502265 67.42145601 -0.01826983 69.56199837 -0.02760315 C72.5560804 -0.03779549 75.54897486 -0.02223014 78.54296875 0 C79.86092438 -0.01214539 79.86092438 -0.01214539 81.20550537 -0.02453613 C87.74246226 0.06509179 92.02830558 1.60278228 96.94897461 6.11523438 C104.65851572 16.08446857 101.20678711 20.23669241 101.20678711 36.51757812 C60.28678711 36.51757812 19.36678711 36.51757812 -22.79321289 36.51757812 C-22.79321289 12.51757812 -22.79321289 12.51757812 -17.79321289 4.51757812 C-11.83368363 0.5434282 -7.04376842 -0.06506048 0 0 Z " fill="#FE6243" transform="translate(22.793212890625,387.482421875)"/>
<path d="M0 0 C1.46496162 -0.01073296 1.46496162 -0.01073296 2.95951843 -0.02168274 C6.16669418 -0.03850169 9.37245892 -0.01920914 12.57958984 0.00219727 C14.8182283 0.00136808 17.0568667 -0.00109317 19.29550171 -0.00511169 C23.97762467 -0.00796488 28.65926798 0.00668764 33.34130859 0.03417969 C39.33812442 0.06830054 45.33408509 0.06222625 51.33094215 0.04351711 C55.94983024 0.03294315 60.56851975 0.04188802 65.18738937 0.05690193 C67.39854721 0.06207859 69.60972583 0.06160823 71.82088089 0.05535698 C74.91098831 0.0498986 77.99987544 0.07029951 81.08984375 0.09765625 C82.00012833 0.09113037 82.9104129 0.08460449 83.84828186 0.07788086 C89.36454512 0.16079888 92.54363734 0.9497936 96.91552734 4.63110352 C105.90798816 14.83876173 101.91552734 16.46321954 101.91552734 35.63110352 C60.99552734 35.63110352 20.07552734 35.63110352 -22.08447266 35.63110352 C-22.08447266 9.78052467 -22.08447266 9.78052467 -16.2983799 3.77829075 C-10.83368185 0.47692131 -6.31929501 -0.08153114 0 0 Z " fill="#FF6142" transform="translate(410.08447265625,-0.631103515625)"/>
<path d="M0 0 C0.84101761 -0.00860046 1.68203522 -0.01720093 2.54853821 -0.02606201 C3.47320389 -0.03032196 4.39786957 -0.03458191 5.35055542 -0.03897095 C6.80938393 -0.05123718 6.80938393 -0.05123718 8.29768372 -0.06375122 C11.52737814 -0.0886323 14.75702844 -0.10513052 17.98678589 -0.11953735 C19.08925533 -0.12486103 20.19172478 -0.13018471 21.32760239 -0.13566971 C27.16581274 -0.16241637 33.00400162 -0.18178419 38.84225464 -0.19619751 C44.86817265 -0.21282549 50.89354164 -0.25758398 56.9192524 -0.30856895 C61.55532444 -0.34225985 66.19126668 -0.35377718 70.8274498 -0.35942459 C73.0481675 -0.36613469 75.26887673 -0.38135035 77.48947525 -0.4053154 C80.60377623 -0.43700057 83.71660373 -0.4369979 86.83102417 -0.42959595 C87.74354446 -0.44600128 88.65606476 -0.46240662 89.59623718 -0.47930908 C94.93576588 -0.42753746 98.62478668 0.53249467 103.19511223 3.29941368 C112.28583403 12.75004858 108.97897339 21.97471835 108.97897339 35.15390015 C68.05897339 35.15390015 27.13897339 35.15390015 -15.02102661 35.15390015 C-15.02102661 11.15390015 -15.02102661 11.15390015 -11.02102661 5.15390015 C-7.29482267 1.87129192 -4.95722819 0.03770696 0 0 Z " fill="#FF6142" transform="translate(15.021026611328125,-0.153900146484375)"/>
<path d="M0 0 C5.80253669 4.68799004 9.60943973 10.40381912 13 17 C13.34289062 17.66257813 13.68578125 18.32515625 14.0390625 19.0078125 C17.29891284 26.77661471 16.24030159 35.7496455 16 44 C14.58736317 44.02896843 13.17455048 44.04942201 11.76171875 44.06640625 C10.97498779 44.07873291 10.18825684 44.09105957 9.37768555 44.10375977 C4.71552813 43.90030798 0.81050409 42.61816416 -2.69140625 39.48828125 C-6.11715565 35.6675833 -8.50226677 31.46176277 -11 27 C-11.94359375 27.66386719 -12.8871875 28.32773438 -13.859375 29.01171875 C-28.94281189 39.45576933 -42.14901021 44.41684431 -60.625 44.125 C-62.27435547 44.11146484 -62.27435547 44.11146484 -63.95703125 44.09765625 C-66.63825758 44.07434124 -69.31900607 44.0416204 -72 44 C-72.73541769 29.43872967 -71.6879097 17.52390154 -61.80078125 5.921875 C-44.99189192 -12.01733009 -19.85916176 -14.1994681 0 0 Z " fill="#59565C" transform="translate(284,177)"/>
<path d="M0 0 C9.51020182 -0.13584012 19.01975382 -0.24579475 28.53070831 -0.31087303 C32.94759822 -0.34211587 37.363787 -0.38445768 41.78027344 -0.45263672 C46.04675635 -0.51808393 50.31256719 -0.553759 54.57951355 -0.56926346 C56.20300368 -0.58030467 57.82645919 -0.60186622 59.44966125 -0.63438034 C74.8475805 -0.93039851 74.8475805 -0.93039851 80.35275269 4.2442627 C80.8963443 4.82365601 81.43993591 5.40304932 82 6 C83.23498596 7.13907531 84.47042906 8.27765515 85.70629883 9.41577148 C86.96205434 10.64527499 88.21212624 11.88060503 89.45703125 13.12109375 C90.12667404 13.78407974 90.79631683 14.44706573 91.48625183 15.13014221 C92.88788616 16.52172722 94.28689271 17.91596365 95.68334961 19.31274414 C97.8140035 21.43900039 99.96018537 23.54871053 102.10742188 25.65820312 C103.47493595 27.01985221 104.84150572 28.38245046 106.20703125 29.74609375 C106.84453812 30.36922958 107.48204498 30.99236542 108.13887024 31.63438416 C113.63062529 37.18297148 116.34237239 42.39013928 116.33988953 50.28184509 C116.32440567 51.03317215 116.30892181 51.78449921 116.29296875 52.55859375 C116.28872391 53.34774673 116.28447906 54.13689972 116.28010559 54.94996643 C116.26344452 57.44617261 116.22581779 59.94154192 116.1875 62.4375 C116.17243683 64.13996222 116.15875129 65.84243721 116.14648438 67.54492188 C116.11614633 71.69718866 116.0574055 75.84766856 116 80 C109.73 80 103.46 80 97 80 C97.25265625 78.01484375 97.5053125 76.0296875 97.765625 73.984375 C98.95554004 59.18326088 97.55800081 45.77011655 87.81860352 33.95922852 C76.79753452 21.56568094 64.72466702 18.65122215 48.70123863 17.68086624 C32.47910866 16.8471302 16.21697538 17.27068681 0 18 C0 12.06 0 6.12 0 0 Z " fill="#FE9811" transform="translate(344,282)"/>
<path d="M0 0 C0.72249435 -0.00043808 1.44498871 -0.00087616 2.18937683 -0.00132751 C4.56492636 0.00075373 6.93976011 0.02405244 9.31518555 0.04760742 C10.96713373 0.05320576 12.61908691 0.05747474 14.27104187 0.06047058 C18.60960752 0.07190067 22.94786977 0.10135187 27.28631592 0.13458252 C31.71712134 0.16532312 36.147976 0.17898443 40.57885742 0.1940918 C49.26586083 0.22622355 57.95255981 0.27897631 66.6394043 0.34057617 C66.6394043 6.28057617 66.6394043 12.22057617 66.6394043 18.34057617 C64.72611328 18.25453125 62.81282227 18.16848633 60.84155273 18.07983398 C20.07598624 14.7110791 20.07598624 14.7110791 -16.11254883 28.87768555 C-26.84412384 39.58855751 -31.58598663 50.93609787 -31.6105957 66.09057617 C-31.47959347 70.88859197 -30.96730194 75.57359856 -30.3605957 80.34057617 C-36.6305957 80.34057617 -42.9005957 80.34057617 -49.3605957 80.34057617 C-49.42971053 75.34127042 -49.4893684 70.34364227 -49.52539062 65.34423828 C-49.54041696 63.64593875 -49.56084393 61.94767763 -49.58691406 60.24951172 C-49.62357019 57.79930099 -49.64038359 55.34960617 -49.65356445 52.89916992 C-49.66904831 52.14784286 -49.68453217 51.39651581 -49.70048523 50.62242126 C-49.70308271 42.36641782 -46.68457734 37.21304654 -40.96511841 31.44061279 C-40.25257904 30.74244446 -39.54003967 30.04427612 -38.8059082 29.32495117 C-38.06734589 28.5873053 -37.32878357 27.84965942 -36.56784058 27.08966064 C-35.01081331 25.53865332 -33.44895014 23.99248725 -31.88256836 22.45092773 C-29.48991416 20.09482865 -27.11369608 17.72307404 -24.73950195 15.34838867 C-23.22091151 13.83962865 -21.70141057 12.33178438 -20.1809082 10.82495117 C-19.4724173 10.11868591 -18.76392639 9.41242065 -18.03396606 8.68475342 C-17.36332123 8.02686829 -16.69267639 7.36898315 -16.00170898 6.69116211 C-15.41785431 6.11493103 -14.83399963 5.53869995 -14.23245239 4.94500732 C-9.50023538 0.8888654 -6.25854151 -0.03198573 0 0 Z " fill="#FE9811" transform="translate(101.360595703125,281.659423828125)"/>
<path d="M0 0 C2.289375 0.7425 2.289375 0.7425 4.625 1.5 C15.94351321 4.55512567 24.69091763 3.08429519 36 0 C36 7.59 36 15.18 36 23 C40.95 23.99 40.95 23.99 46 25 C46.66 25.66 47.32 26.32 48 27 C44.66705871 29.54218108 41.3335749 32.08364984 38 34.625 C36.59814453 35.69427734 36.59814453 35.69427734 35.16796875 36.78515625 C29.79583957 40.87999598 24.41222392 44.95827834 19 49 C15.98556985 47.59213375 13.40330773 45.93552319 10.734375 43.953125 C9.92613281 43.355 9.11789063 42.756875 8.28515625 42.140625 C7.44855469 41.51671875 6.61195313 40.8928125 5.75 40.25 C4.51830078 39.33734375 4.51830078 39.33734375 3.26171875 38.40625 C-1.83947034 34.62280072 -6.92292747 30.81573182 -12 27 C-8.2971891 23.74152641 -6.30360605 23.51531602 -1 22 C-0.67 14.74 -0.34 7.48 0 0 Z " fill="#FECB8B" transform="translate(238,269)"/>
<path d="M0 0 C5.94 0 11.88 0 18 0 C23.23133517 15.69400552 22.22550374 34.8724813 19 51 C18 52 18 52 16.23413086 52.11352539 C15.48526611 52.10828857 14.73640137 52.10305176 13.96484375 52.09765625 C13.15595703 52.09443359 12.34707031 52.09121094 11.51367188 52.08789062 C10.66353516 52.07951172 9.81339844 52.07113281 8.9375 52.0625 C8.08349609 52.05798828 7.22949219 52.05347656 6.34960938 52.04882812 C4.23304337 52.03700373 2.11651315 52.01906769 0 52 C0.144375 50.97003906 0.28875 49.94007813 0.4375 48.87890625 C2.66159498 32.19621518 2.10142812 16.68008569 0 0 Z " fill="#CD2A00" transform="translate(368,230)"/>
<path d="M0 0 C6.27 0 12.54 0 19 0 C18.125 10.625 18.125 10.625 17 14 C16.76715512 17.20347594 16.81022324 20.41391775 16.8125 23.625 C16.81185547 24.55401123 16.81121094 25.48302246 16.81054688 26.44018555 C16.87555267 35.09555948 17.80762091 43.42977531 19 52 C13.06 52 7.12 52 1 52 C-4.47736915 35.56789255 -2.50060163 16.87906099 0 0 Z " fill="#CD2A00" transform="translate(125,230)"/>
<path d="M0 0 C5.94 0 11.88 0 18 0 C18 9.9 18 19.8 18 30 C13.53168357 29.10633671 9.80272465 27.76364001 5.6875 25.9375 C3.480625 24.968125 1.27375 23.99875 -1 23 C-0.67 15.41 -0.34 7.82 0 0 Z " fill="#2081CD" transform="translate(203,335)"/>
<path d="M0 0 C5.94 0 11.88 0 18 0 C18.33 7.59 18.66 15.18 19 23 C16.23625 24.155 13.4725 25.31 10.625 26.5 C9.75568848 26.86544922 8.88637695 27.23089844 7.99072266 27.60742188 C7.3054248 27.89166016 6.62012695 28.17589844 5.9140625 28.46875 C4.8614624 28.90864258 4.8614624 28.90864258 3.78759766 29.35742188 C2 30 2 30 0 30 C0 20.1 0 10.2 0 0 Z " fill="#1F81CE" transform="translate(291,335)"/>
<path d="M0 0 C5.94 0 11.88 0 18 0 C18 5.94 18 11.88 18 18 C12.06 18 6.12 18 0 18 C0 12.06 0 6.12 0 0 Z " fill="#2082CE" transform="translate(459,459)"/>
<path d="M0 0 C5.94 0 11.88 0 18 0 C18 5.94 18 11.88 18 18 C12.06 18 6.12 18 0 18 C0 12.06 0 6.12 0 0 Z " fill="#2082CE" transform="translate(35,459)"/>
<path d="M0 0 C5.94 0 11.88 0 18 0 C18 5.94 18 11.88 18 18 C12.06 18 6.12 18 0 18 C0 12.06 0 6.12 0 0 Z " fill="#2183CF" transform="translate(459,70)"/>
<path d="M0 0 C5.94 0 11.88 0 18 0 C18 5.94 18 11.88 18 18 C12.06 18 6.12 18 0 18 C0 12.06 0 6.12 0 0 Z " fill="#2183CF" transform="translate(35,70)"/>
<path d="M0 0 C5.61 0 11.22 0 17 0 C17 5.61 17 11.22 17 17 C11.39 17 5.78 17 0 17 C0 11.39 0 5.78 0 0 Z " fill="#1E81CE" transform="translate(424,459)"/>
<path d="M0 0 C5.61 0 11.22 0 17 0 C17 5.61 17 11.22 17 17 C11.39 17 5.78 17 0 17 C0 11.39 0 5.78 0 0 Z " fill="#1E81CE" transform="translate(71,459)"/>
<path d="M0 0 C5.61 0 11.22 0 17 0 C17 5.61 17 11.22 17 17 C11.39 17 5.78 17 0 17 C0 11.39 0 5.78 0 0 Z " fill="#1E81CE" transform="translate(424,71)"/>
<path d="M0 0 C5.61 0 11.22 0 17 0 C17 5.61 17 11.22 17 17 C11.39 17 5.78 17 0 17 C0 11.39 0 5.78 0 0 Z " fill="#1E81CE" transform="translate(71,71)"/>
</svg>
